<?xml version="1.0" encoding="iso-8859-1"?>
<!-- Generator: Adobe Illustrator 19.0.0, SVG Export Plug-In . SVG Version: 6.00 Build 0)  -->
<svg version="1.1" id="Layer_1" xmlns="http://www.w3.org/2000/svg" xmlns:xlink="http://www.w3.org/1999/xlink" x="0px" y="0px"
	 viewBox="0 0 512 512" style="enable-background:new 0 0 512 512;" xml:space="preserve">
<g>
	<polygon style="fill:#2C3E50;" points="104,198.352 93.44,186.32 258.816,41.296 418.432,186.416 407.68,198.272 258.624,62.736 	
		"/>
	<circle style="fill:#2C3E50;" cx="258.72" cy="64.464" r="37.472"/>
</g>
<rect y="177.264" style="fill:#E04F5F;" width="512" height="307.744"/>
<g>
	<path style="fill:#FFFFFF;" d="M76.64,278.352c7.76-1.264,19.36-2.208,32.208-2.208c15.872,0,26.992,2.368,34.592,8.4
		c6.352,5.072,9.84,12.544,9.84,22.368c0,13.664-9.664,23.008-18.896,26.336v0.48c7.472,3.008,11.6,10.16,14.304,19.984
		c3.328,12.064,6.656,26.032,8.72,30.16h-24.752c-1.744-3.008-4.288-11.744-7.472-24.928c-2.848-13.328-7.456-16.976-17.296-17.12
		h-7.296v42.048H76.64V278.352z M100.592,324.368h9.536c12.048,0,19.184-6.032,19.184-15.392c0-9.824-6.656-14.752-17.76-14.912
		c-5.872,0-9.2,0.464-10.96,0.784C100.592,294.848,100.592,324.368,100.592,324.368z"/>
	<path style="fill:#FFFFFF;" d="M234.4,338.656h-39.36v25.392h43.952v19.84h-68.24V276.944h66.016v19.824H195.04v22.224h39.36
		V338.656z"/>
	<path style="fill:#FFFFFF;" d="M255.536,383.888V276.944h28.256l22.224,39.184c6.336,11.264,12.704,24.592,17.456,36.656h0.48
		c-1.6-14.128-2.064-28.56-2.064-44.592v-31.248h22.208v106.96H318.72l-22.864-41.264c-6.336-11.424-13.328-25.216-18.576-37.76
		l-0.464,0.16c0.64,14.128,0.96,29.2,0.96,46.656v32.224h-22.24V383.888z"/>
	<path style="fill:#FFFFFF;" d="M385.696,297.248H356.96v-20.32h82.208v20.32h-29.184v86.64h-24.288L385.696,297.248
		L385.696,297.248z"/>
</g>
<g>
</g>
<g>
</g>
<g>
</g>
<g>
</g>
<g>
</g>
<g>
</g>
<g>
</g>
<g>
</g>
<g>
</g>
<g>
</g>
<g>
</g>
<g>
</g>
<g>
</g>
<g>
</g>
<g>
</g>
</svg>
